<svg xmlns="http://www.w3.org/2000/svg" width="900" height="463" viewBox="0 0 900 463" role="img" aria-labelledby="title desc">
<title id="title">Variação em 7 dias: Investimentos EA FC: Laterais em 17/07 — Console (PS)</title>
<desc id="desc">Gráfico gerado a partir da tabela publicada neste artigo.</desc>
<rect width="100%" height="100%" rx="20" fill="#0f172a"/>
<text x="28" y="42" fill="#f8fafc" font-family="system-ui,sans-serif" font-size="23" font-weight="700">Variação em 7 dias</text>
<text x="28" y="70" fill="#94a3b8" font-family="system-ui,sans-serif" font-size="15">Dados do recorte publicado no artigo</text>
<text x="28" y="117" fill="#e2e8f0" font-family="system-ui,sans-serif" font-size="16">Denzel Dumfries</text>
<rect x="285" y="95" width="480" height="28" rx="7" fill="#22c55e"/>
<text x="775" y="116" fill="#f8fafc" font-family="system-ui,sans-serif" font-size="15" font-weight="700">+87.1%</text>
<text x="28" y="175" fill="#e2e8f0" font-family="system-ui,sans-serif" font-size="16">Marc Cucurella</text>
<rect x="285" y="153" width="447" height="28" rx="7" fill="#22c55e"/>
<text x="742" y="174" fill="#f8fafc" font-family="system-ui,sans-serif" font-size="15" font-weight="700">+81.2%</text>
<text x="28" y="233" fill="#e2e8f0" font-family="system-ui,sans-serif" font-size="16">Tarciane</text>
<rect x="285" y="211" width="436" height="28" rx="7" fill="#22c55e"/>
<text x="731" y="232" fill="#f8fafc" font-family="system-ui,sans-serif" font-size="15" font-weight="700">+79.1%</text>
<text x="28" y="291" fill="#e2e8f0" font-family="system-ui,sans-serif" font-size="16">Marcos Llorente</text>
<rect x="285" y="269" width="389" height="28" rx="7" fill="#22c55e"/>
<text x="684" y="290" fill="#f8fafc" font-family="system-ui,sans-serif" font-size="15" font-weight="700">+70.5%</text>
<text x="28" y="349" fill="#e2e8f0" font-family="system-ui,sans-serif" font-size="16">Marcelo</text>
<rect x="285" y="327" width="350" height="28" rx="7" fill="#22c55e"/>
<text x="645" y="348" fill="#f8fafc" font-family="system-ui,sans-serif" font-size="15" font-weight="700">+63.5%</text>
<text x="28" y="407" fill="#e2e8f0" font-family="system-ui,sans-serif" font-size="16">Reece James</text>
<rect x="285" y="385" width="306" height="28" rx="7" fill="#22c55e"/>
<text x="601" y="406" fill="#f8fafc" font-family="system-ui,sans-serif" font-size="15" font-weight="700">+55.6%</text>
</svg>
